<svg width="231" height="39" viewBox="0 0 231 39" fill="none" xmlns="http://www.w3.org/2000/svg">
<g clip-path="url(#clip0_401_2)">
<path d="M2.05337 37.3542C2.19484 37.7075 2.43903 38.0102 2.75437 38.2232C3.0697 38.4362 3.44169 38.5497 3.82223 38.5491C4.32357 38.5491 4.80952 38.352 5.17105 37.9917L7.87732 35.2861C8.15878 35.4382 8.45934 35.541 8.77407 35.541C9.26186 35.541 9.75088 35.3563 10.1217 34.9836L13.256 31.8493L13.45 32.0433C13.6268 32.2209 13.837 32.3618 14.0684 32.4579C14.2998 32.5541 14.5479 32.6036 14.7985 32.6036C15.0491 32.6036 15.2972 32.5541 15.5286 32.4579C15.76 32.3618 15.9702 32.2209 16.147 32.0433L36.0141 12.1824C36.3803 11.8191 36.6708 11.3866 36.8685 10.91C37.0662 10.4335 37.1673 9.92246 37.1658 9.40655C37.1676 8.89115 37.0666 8.38056 36.8689 7.9046C36.6711 7.42863 36.3805 6.99683 36.0141 6.63439L30.4932 1.11161C29.0144 -0.369014 26.4288 -0.372709 24.9451 1.11161L5.07867 20.9738C4.9016 21.1507 4.76114 21.3608 4.66531 21.592C4.56947 21.8232 4.52015 22.0711 4.52015 22.3214C4.52015 22.5717 4.56947 22.8195 4.66531 23.0507C4.76114 23.282 4.9016 23.492 5.07867 23.6689L5.27452 23.866L2.14082 27.0022C1.52862 27.6144 1.44855 28.5235 1.83965 29.2453L0.558577 30.5264C0.294272 30.7909 0.113455 31.1272 0.0385638 31.4935C-0.0363269 31.8599 -0.00199415 32.2402 0.137302 32.5872L2.05275 37.3542H2.05337ZM27.7955 3.80802L33.3171 9.48354L14.8013 27.9963L14.6122 27.8053L14.6085 27.8023L9.32283 22.5203L9.32099 22.5166L9.13437 22.3294L27.7955 3.80802ZM10.5608 29.1523L8.77591 30.9366L6.18913 28.351L7.9734 26.5668L10.5602 29.1517L10.5608 29.1523Z" fill="#74DBEF"/>
<path d="M56.8377 20.1505C56.8377 21.9157 64.3159 21.0781 64.3159 25.7441C64.3159 28.7953 61.6238 30.5001 58.2739 30.5001C56.1497 30.5001 54.0261 29.4531 52.3514 27.7778L55.2523 24.877C56.09 25.8932 57.2866 26.6717 58.2739 26.7616C59.2612 26.8515 60.0982 26.4321 60.2479 25.9837C60.607 24.8468 58.5431 24.787 57.9149 24.6078C55.5517 23.8897 52.7998 22.9024 52.7998 19.9713C52.7998 16.4718 56.449 15.2751 58.2739 15.2751C60.368 15.2751 62.491 16.2322 64.1958 17.9672L61.3245 20.8385C60.5466 19.8223 59.2009 19.0142 58.2739 19.0142C57.7948 19.0142 56.8377 19.1934 56.8377 20.1505ZM76.5015 24.9669L79.6124 27.7778C77.9372 29.6329 75.7538 30.5001 73.4208 30.5001C69.1138 30.5001 65.6438 27.2697 65.6438 22.9024C65.6438 18.535 69.1138 15.2751 73.4208 15.2751C75.7538 15.2751 77.9372 16.1429 79.6124 17.9973L76.5021 20.8089C75.8431 19.2833 74.4081 18.9243 73.4208 18.9243C71.5965 18.9243 70.0703 20.5398 70.0703 22.903C70.0703 25.2354 71.5965 26.8509 73.4208 26.8509C74.4081 26.8509 75.8733 26.5824 76.5015 24.9669ZM95.5359 21.8258V30.2605H91.1088V21.8258C91.1088 19.5525 90.5108 18.5954 88.7758 18.5954C86.981 18.5954 85.934 19.5525 85.934 21.8258V30.2605H81.5075V8.54513H85.934V17.1295C86.5025 15.4851 88.6563 15.2757 89.9423 15.2757C94.07 15.2757 95.5359 17.2792 95.5359 21.8258ZM112.747 22.9024V23.8897H102.218C102.218 25.6247 103.983 26.8509 105.448 26.8509C106.884 26.8509 108.2 26.2824 108.888 25.026L111.849 27.7483C110.653 29.3632 108.828 30.5001 105.448 30.5001C100.603 30.5001 97.6416 27.2697 97.6416 22.9024C97.6416 18.535 100.513 15.2751 105.179 15.2751C109.845 15.2751 112.747 18.4759 112.747 22.9024ZM102.308 21.0781H108.111C107.871 19.672 106.854 18.9243 105.179 18.9243C103.564 18.9243 102.577 19.7921 102.308 21.0781ZM138.423 30.2611H133.966V21.8252C133.966 19.5519 133.338 18.5948 131.663 18.5948C129.868 18.5948 128.821 19.5519 128.821 21.8252V30.2599H124.364V21.8258C124.364 19.5525 123.766 18.5954 122.061 18.5954C120.267 18.5954 119.19 19.5525 119.19 21.8258V30.2605H114.763V15.4851H119.19V16.8308C120.237 15.7838 121.822 15.2751 123.228 15.2751C125.322 15.2751 126.668 16.053 127.625 17.2792C128.432 16.2919 130.167 15.3946 132.77 15.2751C136.927 15.2751 138.423 17.249 138.423 21.8258V30.2611ZM155.843 22.9024V23.8897H145.314C145.314 25.6247 147.079 26.8509 148.545 26.8509C149.981 26.8509 151.296 26.2824 151.984 25.026L154.946 27.7483C153.75 29.3632 151.925 30.5001 148.545 30.5001C143.699 30.5001 140.738 27.2697 140.738 22.9024C140.738 18.535 143.609 15.2751 148.275 15.2751C152.941 15.2751 155.843 18.4759 155.843 22.9024ZM145.404 21.0781H151.207C150.967 19.672 149.951 18.9243 148.275 18.9243C146.661 18.9243 145.673 19.7921 145.404 21.0781ZM175.936 24.9663L179.047 27.7778C177.372 29.6329 175.188 30.5001 172.855 30.5001C168.548 30.5001 165.078 27.2697 165.078 22.9024C165.078 18.535 168.548 15.2751 172.855 15.2751C175.188 15.2751 177.372 16.1429 179.047 17.9973L175.937 20.8089C175.278 19.2833 173.843 18.9243 172.855 18.9243C171.031 18.9243 169.505 20.5398 169.505 22.903C169.505 25.2354 171.031 26.8509 172.855 26.8509C173.843 26.8509 175.308 26.5818 175.936 24.9663ZM187.913 18.9243C186.088 18.9243 184.562 20.5398 184.562 22.903C184.562 25.2354 186.088 26.8509 187.913 26.8509C189.767 26.8509 191.293 25.2354 191.293 22.903C191.293 20.5398 189.767 18.9243 187.913 18.9243ZM187.913 15.2751C192.25 15.2751 195.719 18.5356 195.719 22.9024C195.719 27.2691 192.25 30.5001 187.913 30.5001C183.605 30.5001 180.136 27.2697 180.136 22.9024C180.136 18.535 183.605 15.2751 187.913 15.2751ZM201.742 8.00684V30.2605H197.286V8.00684H201.742ZM211.416 18.9243C209.591 18.9243 208.065 20.5398 208.065 22.903C208.065 25.2354 209.591 26.8509 211.416 26.8509C213.27 26.8509 214.796 25.2354 214.796 22.903C214.796 20.5398 213.27 18.9243 211.416 18.9243ZM211.416 15.2751C215.753 15.2751 219.223 18.5356 219.223 22.9024C219.223 27.2691 215.753 30.5001 211.416 30.5001C207.109 30.5001 203.639 27.2697 203.639 22.9024C203.639 18.535 207.109 15.2751 211.416 15.2751ZM230.751 15.6939L230.152 19.0136C229.046 18.5356 228.836 18.6256 228.328 18.6256C226.533 18.6256 225.486 19.5827 225.486 21.9453V30.2605H221.059V15.4851H225.486V16.8007C226.054 15.7838 227.609 15.2751 228.597 15.2751C229.524 15.2751 230.063 15.3053 230.751 15.6939Z" fill="white"/>
</g>
<defs>
<clipPath id="clip0_401_2">
<rect width="230.75" height="38.55" fill="white"/>
</clipPath>
</defs>
</svg>
